<svg width="65" height="65" viewBox="0 0 65 65" fill="none" xmlns="http://www.w3.org/2000/svg">
<rect x="0.166626" y="0.5" width="64" height="64" rx="32" fill="#9CA3AF"/>
<path fill-rule="evenodd" clip-rule="evenodd" d="M24.6666 22.5C24.6666 20.5109 25.4568 18.6032 26.8633 17.1967C28.2698 15.7902 30.1775 15 32.1666 15C34.1557 15 36.0634 15.7902 37.4699 17.1967C38.8764 18.6032 39.6666 20.5109 39.6666 22.5C39.6666 24.4891 38.8764 26.3968 37.4699 27.8033C36.0634 29.2098 34.1557 30 32.1666 30C30.1775 30 28.2698 29.2098 26.8633 27.8033C25.4568 26.3968 24.6666 24.4891 24.6666 22.5ZM18.4183 46.0083C18.4745 42.3991 19.9477 38.9568 22.5199 36.4243C25.0921 33.8918 28.557 32.4724 32.1666 32.4724C35.7763 32.4724 39.2412 33.8918 41.8134 36.4243C44.3856 38.9568 45.8588 42.3991 45.915 46.0083C45.9193 46.2513 45.8527 46.4903 45.7234 46.696C45.594 46.9017 45.4075 47.0653 45.1866 47.1667C41.1019 49.0395 36.6602 50.0061 32.1666 50C27.5233 50 23.1116 48.9867 19.1466 47.1667C18.9258 47.0653 18.7392 46.9017 18.6099 46.696C18.4805 46.4903 18.414 46.2513 18.4183 46.0083Z" fill="black"/>
</svg>
